<?xml version="1.0" encoding="utf-8"?>
<!-- Generator: Adobe Illustrator 21.1.0, SVG Export Plug-In . SVG Version: 6.00 Build 0)  -->
<svg version="1.1" id="Layer_1" xmlns="http://www.w3.org/2000/svg" xmlns:xlink="http://www.w3.org/1999/xlink" x="0px" y="0px"
	 viewBox="0 0 75.5 80.6" style="enable-background:new 0 0 75.5 80.6;" xml:space="preserve">
<style type="text/css">
	.st0{enable-background:new    ;}
	.st1{fill:#1C2932;}
</style>
<g class="st0">
	<path class="st1" d="M46.9,46.4L39,54.3l2.6,2.6L35,63.6c-1.2,1.2-2.7,2.2-4.3,2.8s-3.3,1-5,1c-1.4,0-2.8-0.2-4.1-0.7
		c-1.3-0.4-2.6-1.1-3.7-1.9L12,70.7L9.4,68l5.8-5.8c-0.9-1.1-1.5-2.4-1.9-3.7s-0.7-2.7-0.7-4.1c0-1.7,0.3-3.4,1-5
		c0.7-1.6,1.6-3,2.8-4.3l6.7-6.6l2.6,2.6l7.9-7.9l2.7,2.6l-8,8l8,8l8-8L46.9,46.4z M25.7,63.7c1.2,0,2.4-0.2,3.6-0.7s2.2-1.2,3-2
		l4-4L23.1,43.7l-4,4c-0.9,0.9-1.6,1.9-2,3c-0.5,1.1-0.7,2.3-0.7,3.6c0,1.3,0.2,2.5,0.7,3.6c0.5,1.1,1.2,2.1,2,3s1.8,1.5,3,2
		S24.4,63.7,25.7,63.7z M62.5,20.2c0.9,1.1,1.5,2.4,1.9,3.7s0.7,2.7,0.7,4.1c0,1.7-0.3,3.4-1,5s-1.6,3-2.8,4.3L54.6,44L36.1,25.5
		l6.6-6.7c1.2-1.2,2.7-2.2,4.3-2.8s3.3-1,5-1c1.4,0,2.8,0.2,4.1,0.7s2.6,1.1,3.7,1.9l5.8-5.8l2.6,2.6L62.5,20.2z M58.6,34.7
		c0.9-0.9,1.6-1.9,2-3s0.7-2.3,0.7-3.6c0-1.3-0.2-2.5-0.7-3.6s-1.2-2.1-2-3s-1.8-1.5-3-2s-2.3-0.7-3.6-0.7c-1.3,0-2.4,0.2-3.6,0.7
		s-2.2,1.2-3,2l-4,4l13.2,13.2L58.6,34.7z"/>
</g>
</svg>
